<?xml version="1.0" standalone="no"?>
<!DOCTYPE svg PUBLIC "-//W3C//DTD SVG 20010904//EN"
 "http://www.w3.org/TR/2001/REC-SVG-20010904/DTD/svg10.dtd">
<svg version="1.0" xmlns="http://www.w3.org/2000/svg"
 width="4193.000000pt" height="1647.000000pt" viewBox="0 0 4193.000000 1647.000000"
 preserveAspectRatio="xMidYMid meet" id="main-svg">

<g transform="translate(0.000000,1647.000000) scale(0.100000,-0.100000)"
fill="#db0032" stroke="none" id="main-group">
<path id="letter-d1" d="M7245 13480 c-11 -5 -157 -131 -325 -280 -204 -181 -312 -285 -327
-312 l-23 -41 0 -754 0 -753 -33 0 c-29 0 -42 11 -111 89 -371 427 -881 626
-1489 583 -532 -38 -947 -210 -1280 -531 -450 -434 -664 -1070 -627 -1865 27
-559 155 -1002 397 -1363 320 -479 786 -757 1375 -822 144 -16 422 -14 547 5
257 37 545 140 735 262 156 100 315 254 428 413 53 75 67 89 90 89 27 0 28 -1
28 -57 1 -32 5 -184 10 -338 8 -248 11 -281 26 -292 26 -19 702 -19 728 0 15
11 17 23 11 83 -3 38 -9 1366 -13 2952 l-7 2884 -33 29 c-33 30 -68 36 -107
19z m-1730 -2064 c260 -49 482 -164 665 -346 228 -226 341 -490 370 -860 13
-170 13 -894 0 -1059 -24 -303 -132 -558 -317 -747 -189 -193 -398 -300 -708
-361 -131 -26 -496 -26 -613 0 -229 51 -404 142 -565 296 -244 233 -399 569
-464 1006 -26 175 -26 692 0 850 38 223 79 366 152 522 188 401 512 647 938
712 96 15 437 6 542 -13z"/>
<path id="letter-d2" d="M29124 13468 c-17 -13 -164 -142 -326 -286 -194 -173 -303 -277 -315
-300 -17 -35 -18 -86 -21 -789 l-2 -753 -25 0 c-19 0 -61 36 -173 149 -81 82
-181 173 -222 203 -222 162 -466 262 -744 305 -132 21 -473 23 -606 4 -473
-66 -833 -231 -1130 -518 -354 -341 -555 -776 -622 -1348 -16 -139 -16 -562 0
-715 35 -328 108 -614 218 -863 104 -236 226 -410 418 -603 286 -285 584 -434
1021 -511 78 -14 157 -17 365 -17 250 0 272 1 390 26 483 104 836 328 1080
688 34 51 45 60 70 60 l30 0 1 -162 c0 -90 4 -241 8 -337 8 -151 11 -177 27
-188 25 -18 702 -19 727 0 16 11 17 25 6 177 -8 114 -13 1019 -16 2953 l-5
2788 -21 25 c-32 37 -93 43 -133 12z m-1694 -2056 c520 -108 873 -459 991
-987 22 -96 23 -123 27 -680 2 -399 0 -609 -8 -673 -34 -277 -148 -511 -338
-694 -101 -98 -172 -148 -297 -210 -191 -96 -376 -137 -650 -145 -204 -6 -323
8 -465 52 -482 152 -809 599 -904 1240 -39 259 -43 578 -10 835 52 405 190
717 419 945 179 179 394 287 660 331 119 20 451 11 575 -14z"/>
<path id="letter-o1" d="M10381 12009 c-1176 -84 -1940 -780 -2098 -1909 -27 -194 -24 -607 6
-800 77 -506 261 -901 566 -1219 339 -353 779 -560 1365 -643 148 -21 690 -18
850 5 441 62 820 213 1125 446 86 66 237 212 320 312 261 312 416 699 471
1179 21 184 15 607 -11 770 -81 515 -267 902 -590 1226 -466 468 -1177 692
-2004 633z m511 -584 c346 -46 617 -179 842 -415 218 -229 351 -520 412 -899
21 -132 30 -505 15 -656 -77 -795 -508 -1311 -1201 -1437 -165 -30 -495 -30
-660 0 -314 58 -551 182 -758 397 -204 212 -325 446 -395 765 -41 183 -51 297
-51 545 0 257 15 391 64 588 155 623 593 1029 1200 1112 132 18 395 18 532 0z"/>
<path id="letter-s" d="M15105 12010 c-915 -77 -1471 -571 -1397 -1242 29 -260 148 -480 351
-652 220 -185 580 -363 1086 -536 673 -230 933 -399 1016 -659 28 -86 30 -247
5 -341 -74 -276 -333 -493 -678 -567 -111 -24 -394 -24 -523 0 -139 25 -260
63 -373 117 -137 65 -222 123 -330 224 -72 68 -97 85 -130 91 -54 9 -82 -5
-317 -152 -138 -87 -191 -126 -193 -141 -5 -33 71 -137 172 -237 233 -229 579
-389 1011 -466 168 -30 552 -38 747 -15 464 53 820 205 1086 460 190 184 291
365 341 613 42 206 36 412 -15 591 -127 442 -486 717 -1329 1014 -396 140
-684 265 -842 367 -98 62 -191 159 -227 234 -14 30 -31 86 -37 125 -44 266
166 494 531 578 107 25 385 30 515 10 254 -40 451 -137 640 -316 81 -77 126
-93 186 -67 48 20 402 254 412 273 13 24 -33 85 -163 214 -125 125 -231 201
-388 280 -183 90 -383 153 -597 185 -125 19 -415 27 -560 15z"/>
<path id="letter-o2" d="M32340 12013 c-397 -27 -706 -100 -989 -234 -651 -307 -1050 -871
-1167 -1654 -21 -141 -29 -510 -15 -675 74 -830 482 -1457 1162 -1784 221
-107 449 -176 715 -217 176 -27 591 -37 781 -20 625 58 1123 279 1487 661 378
398 565 890 583 1535 21 755 -188 1333 -638 1770 -237 230 -485 379 -809 485
-321 106 -757 158 -1110 133z m523 -597 c141 -27 254 -63 375 -121 151 -73
248 -141 367 -260 325 -323 482 -801 462 -1405 -18 -543 -169 -944 -468 -1240
-264 -262 -634 -400 -1074 -400 -438 0 -804 138 -1069 405 -239 239 -379 538
-442 940 -34 221 -29 596 12 835 76 443 303 815 633 1035 188 125 372 189 656
229 75 10 464 -3 548 -18z"/>
<path id="letter-s2" d="M37070 12014 c-380 -32 -606 -87 -835 -201 -398 -200 -613 -500 -632
-884 -18 -369 129 -659 456 -892 221 -158 511 -293 991 -460 367 -128 585
-223 735 -322 142 -93 245 -226 280 -362 21 -82 19 -223 -5 -317 -70 -274
-326 -488 -672 -562 -115 -25 -394 -25 -533 0 -273 49 -513 166 -690 336 -98
93 -141 112 -204 88 -58 -23 -430 -258 -441 -278 -26 -49 194 -291 367 -404
231 -151 503 -253 818 -307 154 -27 518 -37 702 -20 724 68 1258 417 1432 937
44 130 61 246 61 409 0 165 -16 265 -64 399 -141 394 -510 659 -1311 941 -397
140 -683 265 -843 368 -100 65 -175 145 -219 235 -36 73 -38 80 -38 176 0 121
18 180 79 263 52 71 127 129 231 182 145 71 292 101 505 101 362 0 625 -98
860 -320 86 -81 129 -100 188 -82 60 19 416 263 420 288 4 28 -91 148 -194
242 -237 220 -583 374 -955 427 -110 16 -397 27 -489 19z"/>
<path id="angle-right" d="M18410 11968 c-53 -15 -100 -56 -124 -107 -20 -43 -21 -62 -21 -291
0 -243 0 -246 25 -293 20 -38 178 -180 865 -778 791 -688 840 -732 840 -763 0
-31 -48 -74 -835 -756 -459 -398 -843 -733 -852 -745 -38 -45 -43 -83 -43
-335 0 -235 1 -247 22 -287 58 -107 185 -141 281 -75 22 15 526 450 1121 967
1064 924 1082 940 1114 1004 l32 66 0 165 c0 161 -1 166 -28 223 -27 54 -94
115 -1130 1018 -606 528 -1113 966 -1127 974 -37 19 -100 25 -140 13z"/>
<path id="angle-left" d="M23377 11968 c-28 -8 -286 -227 -1100 -935 -584 -509 -1088 -950
-1119 -981 -78 -75 -98 -126 -105 -261 -7 -125 7 -223 42 -292 16 -30 56 -75
112 -126 342 -304 2111 -1832 2141 -1848 91 -49 209 -8 257 89 l26 54 -3 253
c-3 219 -5 258 -21 286 -10 18 -379 346 -862 765 -835 723 -846 733 -843 767
3 31 63 86 843 765 682 594 844 740 863 776 21 42 22 55 22 287 0 265 -4 290
-58 346 -51 54 -124 74 -195 55z"/>
<path id="letter-g" fill="#000" d="M8646 4850 c-394 -62 -654 -302 -742 -685 -15 -63 -19 -117 -18 -255
1 -156 4 -186 27 -275 87 -327 287 -529 608 -617 74 -20 106 -23 279 -23 182
0 202 2 293 28 55 15 134 45 177 66 85 43 86 43 110 -19 21 -56 28 -60 95 -60
48 0 64 4 69 16 9 24 7 887 -2 902 -7 9 -90 12 -383 10 l-374 -3 -3 -72 -3
-73 268 -2 268 -3 3 -239 c3 -279 9 -260 -112 -320 -194 -96 -480 -111 -677
-36 -81 31 -188 109 -242 176 -68 83 -125 205 -148 316 -26 127 -26 348 0 474
74 360 347 560 736 541 191 -10 348 -65 450 -159 29 -26 57 -48 63 -48 15 0
112 90 112 104 0 28 -120 127 -202 166 -135 65 -256 91 -438 95 -85 2 -182 0
-214 -5z"/>
<path id="letter-o3" fill="#000" d="M18745 4849 c-85 -12 -189 -45 -270 -86 -178 -89 -308 -232 -383
-423 -55 -140 -67 -215 -66 -425 0 -173 3 -199 27 -289 84 -312 275 -513 572
-602 74 -22 116 -27 238 -32 169 -5 260 6 384 48 277 93 468 321 533 639 25
121 27 337 5 462 -79 451 -412 723 -879 718 -55 -1 -128 -5 -161 -10z m395
-182 c154 -55 275 -165 349 -320 49 -101 68 -173 82 -312 14 -127 1 -287 -32
-405 -92 -332 -368 -519 -709 -480 -224 26 -397 146 -494 345 -62 126 -78 200
-83 390 -4 145 -2 185 16 270 54 267 226 461 463 525 109 30 304 23 408 -13z"/>
<path id="letter-g2" fill="#000" d="M28310 4854 c-141 -22 -265 -57 -355 -102 -121 -60 -257 -182 -330
-296 -170 -265 -190 -679 -50 -984 113 -243 325 -403 615 -462 91 -19 128 -21
280 -17 204 5 315 29 450 95 l81 40 14 -22 c8 -12 20 -36 26 -54 13 -37 32
-44 110 -40 l54 3 0 460 0 460 -395 0 -395 0 0 -70 0 -70 275 -5 275 -5 3
-246 2 -247 -47 -30 c-67 -43 -134 -70 -233 -95 -121 -30 -351 -29 -463 1
-235 64 -397 230 -469 478 -20 70 -23 100 -23 274 0 174 3 204 23 274 106 367
413 549 838 497 166 -21 284 -69 395 -162 26 -22 50 -39 54 -39 14 0 115 91
115 104 0 20 -99 108 -160 143 -78 45 -222 91 -337 108 -88 13 -289 18 -353 9z"/>
<path id="letter-p" fill="#000" d="M10722 3923 l3 -908 105 0 105 0 5 400 5 400 180 3 c103 1 202 -2
232 -8 72 -15 141 -64 184 -130 20 -30 98 -190 174 -355 76 -165 143 -303 149
-307 6 -4 57 -8 114 -8 82 0 104 3 108 15 8 21 -320 705 -362 753 -18 21 -53
49 -78 63 -25 13 -46 28 -46 34 0 5 28 18 62 28 259 76 390 269 358 526 -25
193 -137 310 -361 373 -69 20 -104 22 -507 25 l-432 4 2 -908z m801 733 c95
-18 162 -52 214 -108 52 -58 68 -105 67 -203 -1 -132 -37 -213 -122 -276 -98
-72 -218 -92 -532 -87 l-205 3 -3 330 c-1 181 0 336 3 342 7 19 478 18 578 -1z"/>
<path id="letter-a" fill="#000" d="M13167 4823 c-11 -11 -8 -1140 3 -1233 37 -309 183 -490 460 -570
115 -34 379 -39 515 -11 115 23 235 78 307 141 61 53 129 157 161 245 50 141
52 175 52 825 l0 605 -112 3 -112 3 -4 -628 c-4 -699 -3 -690 -73 -824 -44
-83 -104 -141 -187 -180 -79 -36 -146 -49 -262 -49 -122 0 -185 13 -272 55
-114 56 -186 151 -230 300 -15 54 -18 127 -21 693 l-3 632 -108 0 c-59 0 -111
-3 -114 -7z"/>
<path id="letter-p2" fill="#000" d="M15762 3923 l3 -908 110 0 110 0 5 345 5 345 280 6 c204 4 299 10
351 22 266 60 415 189 470 407 23 91 16 273 -14 350 -51 130 -149 224 -291
279 -141 54 -211 61 -642 61 l-389 0 2 -907z m811 732 c139 -29 246 -112 288
-224 18 -48 20 -72 17 -166 -3 -93 -8 -119 -30 -166 -45 -99 -136 -170 -263
-207 -69 -20 -558 -30 -580 -12 -13 11 -15 68 -15 395 0 210 3 385 7 388 13
14 505 7 576 -8z"/>
<path id="letter-i" fill="#000" d="M20922 4764 l-92 -65 2 -842 3 -842 107 -3 c105 -3 108 -2 113 20 3
13 4 421 3 908 -3 877 -3 885 -23 887 -11 1 -62 -28 -113 -63z"/>
<path id="letter-m" fill="#000" d="M22137 4823 c-9 -8 -9 -1776 -1 -1797 5 -13 25 -16 110 -16 l104 0 0
698 c0 383 4 703 9 711 5 7 14 12 21 9 6 -2 149 -318 318 -703 168 -385 310
-703 316 -708 6 -4 42 -6 81 -5 l70 3 292 665 c339 774 330 753 346 747 9 -3
13 -164 17 -708 l5 -704 105 0 105 0 3 908 2 907 -139 0 -139 0 -47 -107 c-25
-60 -173 -403 -328 -763 -224 -519 -286 -655 -300 -655 -15 0 -85 154 -340
750 -177 413 -326 756 -330 763 -9 13 -267 18 -280 5z"/>
<path id="letter-a2" fill="#000" d="M25741 4813 c-33 -63 -711 -1778 -707 -1790 5 -11 29 -13 118 -11
l113 3 75 200 c42 110 79 206 83 213 6 9 104 12 431 12 327 0 426 -3 434 -12
6 -7 43 -101 83 -208 40 -107 78 -198 83 -202 6 -4 59 -8 119 -8 94 0 107 2
107 17 0 9 -160 419 -356 910 l-356 893 -109 0 c-93 0 -110 -2 -118 -17z m134
-263 c12 -19 345 -923 345 -936 0 -12 -62 -14 -359 -14 -208 0 -362 4 -365 9
-10 15 345 951 360 951 7 0 15 -4 19 -10z"/>
<path id="letter-e" fill="#000" d="M30382 3923 l3 -908 615 0 615 0 3 77 3 78 -503 2 -503 3 -3 358 -2
357 450 0 450 0 0 80 0 80 -447 2 -448 3 -3 307 -2 308 502 2 503 3 3 78 3 77
-621 0 -620 0 2 -907z"/>
<path id="letter-n" fill="#000" d="M32755 4818 c-3 -7 -4 -416 -3 -908 l3 -895 110 0 110 0 5 740 c4
636 7 740 19 740 8 0 254 -333 545 -740 l531 -740 115 0 115 0 0 905 0 905
-110 0 -110 0 -3 -728 c-2 -686 -3 -728 -20 -725 -9 2 -245 323 -534 728
l-517 725 -126 3 c-95 2 -127 -1 -130 -10z"/>
</g>
</svg>