<svg id="visual" viewBox="0 0 900 600" width="900" height="600" xmlns="http://www.w3.org/2000/svg" xmlns:xlink="http://www.w3.org/1999/xlink" version="1.1"><g stroke-width="1" stroke-linejoin="bevel"><path d="M465 410L413 600L664 600Z" fill="#d52525" stroke="#d52525"></path><path d="M664 600L685 430L465 410Z" fill="#d22525" stroke="#d22525"></path><path d="M465 410L238 600L413 600Z" fill="#cb2424" stroke="#cb2424"></path><path d="M664 600L900 600L685 430Z" fill="#be2222" stroke="#be2222"></path><path d="M465 410L192 396L238 600Z" fill="#cb2424" stroke="#cb2424"></path><path d="M900 218L655 171L685 430Z" fill="#c82323" stroke="#c82323"></path><path d="M685 430L655 171L465 410Z" fill="#cb2424" stroke="#cb2424"></path><path d="M465 410L196 228L192 396Z" fill="#c52323" stroke="#c52323"></path><path d="M655 171L411 167L465 410Z" fill="#d92626" stroke="#d92626"></path><path d="M900 600L900 382L685 430Z" fill="#cf2424" stroke="#cf2424"></path><path d="M411 167L196 228L465 410Z" fill="#dc2626" stroke="#dc2626"></path><path d="M900 382L900 218L685 430Z" fill="#c12222" stroke="#c12222"></path><path d="M192 396L0 600L238 600Z" fill="#d92626" stroke="#d92626"></path><path d="M0 365L0 600L192 396Z" fill="#cb2424" stroke="#cb2424"></path><path d="M714 0L414 0L655 171Z" fill="#be2222" stroke="#be2222"></path><path d="M655 171L414 0L411 167Z" fill="#c82323" stroke="#c82323"></path><path d="M411 167L206 0L196 228Z" fill="#cf2424" stroke="#cf2424"></path><path d="M900 218L714 0L655 171Z" fill="#cf2424" stroke="#cf2424"></path><path d="M0 202L0 365L196 228Z" fill="#cb2424" stroke="#cb2424"></path><path d="M196 228L0 365L192 396Z" fill="#c52323" stroke="#c52323"></path><path d="M414 0L206 0L411 167Z" fill="#d22525" stroke="#d22525"></path><path d="M206 0L0 202L196 228Z" fill="#cb2424" stroke="#cb2424"></path><path d="M900 218L900 0L714 0Z" fill="#c82323" stroke="#c82323"></path><path d="M206 0L0 0L0 202Z" fill="#be2222" stroke="#be2222"></path></g></svg>